HIERARCHY
ROOT Hips
{
   OFFSET 0.00000 0.00000 0.00000
   CHANNELS 6 Xposition Yposition Zposition Zrotation Xrotation Yrotation
   JOINT Spine
   {
      OFFSET 0.000000 11.890501 0.000000
      CHANNELS 3 Zrotation Xrotation Yrotation
      JOINT Spine1
      {
         OFFSET -0.000000 25.657401 0.127660
         CHANNELS 3 Zrotation Xrotation Yrotation
         JOINT HEad
         {
            OFFSET 0.000000 8.734161 0.011340
            CHANNELS 3 Zrotation Xrotation Yrotation
            End Site
            {
               OFFSET -0.290000 12.774200 2.513950
            }
         }
         JOINT LeftShoulder1
         {
            OFFSET 8.990000 -0.362250 -0.220000
            CHANNELS 3 Zrotation Xrotation Yrotation
            JOINT LeftArm
            {
               OFFSET 10.282700 -0.003380 0.322120
               CHANNELS 3 Zrotation Xrotation Yrotation
               JOINT LeftForeArm
               {
                  OFFSET 32.766900 0.099140 -1.424340
                  CHANNELS 3 Zrotation Xrotation Yrotation
                  JOINT LeftHand
                  {
                     OFFSET 27.564301 0.085360 1.022160
                     CHANNELS 3 Zrotation Xrotation Yrotation
                     End Site
                     {
                        OFFSET 16.744301 -0.600000 1.502910
                     }
                  }
               }
            }
         }
         JOINT RightShoulder
         {
            OFFSET -8.990000 -0.362250 -0.220000
            CHANNELS 3 Zrotation Xrotation Yrotation
            JOINT RightArm
            {
               OFFSET -10.282700 -0.003380 0.322120
               CHANNELS 3 Zrotation Xrotation Yrotation
               JOINT RightForeArm
               {
                  OFFSET -32.897098 0.099140 -1.424340
                  CHANNELS 3 Zrotation Xrotation Yrotation
                  JOINT RightHand
                  {
                     OFFSET -27.492101 0.085360 1.022160
                     CHANNELS 3 Zrotation Xrotation Yrotation
                     End Site
                     {
                        OFFSET -16.631201 -0.600000 1.502910
                     }
                  }
               }
            }
         }
      }
   }
   JOINT LeftUpLeg
   {
      OFFSET 8.945800 -8.667070 0.101650
      CHANNELS 3 Zrotation Xrotation Yrotation
      JOINT LeftLeg
      {
         OFFSET 0.000000 -44.422697 1.372700
         CHANNELS 3 Zrotation Xrotation Yrotation
         JOINT LeftFoot
         {
            OFFSET -0.253550 -42.092399 -1.460590
            CHANNELS 3 Zrotation Xrotation Yrotation
            JOINT LeftToes
            {
               OFFSET -0.040000 -4.415090 8.499099
               CHANNELS 3 Zrotation Xrotation Yrotation
               End Site
               {
                  OFFSET 0.080000 -0.047450 9.779790
               }
            }
         }
      }
   }
   JOINT RightUpLeg
   {
      OFFSET -8.945800 -8.667070 0.101650
      CHANNELS 3 Zrotation Xrotation Yrotation
      JOINT RightLeg
      {
         OFFSET 0.000000 -44.422697 1.372700
         CHANNELS 3 Zrotation Xrotation Yrotation
         JOINT RightFoot
         {
            OFFSET 0.253550 -42.092399 -1.460590
            CHANNELS 3 Zrotation Xrotation Yrotation
            JOINT RightToes
            {
               OFFSET 0.040000 -4.415090 8.499099
               CHANNELS 3 Zrotation Xrotation Yrotation
               End Site
               {
                  OFFSET -0.080000 -0.137450 9.779790
               }
            }
         }
      }
   }
}
MOTION
Frames: 11
Frame Time: 0.016670
-54.741224 96.903742 -123.392923 -2.293871 -18.751492 0.248778 -10.947511 24.987774 164.930873 -0.795750 2.639431 -182.765480 -20.182886 41.345751 -4.944661 41.827908 89.056227 -53.201809 146.352663 -90.790167 98.714026 369.038454 -33.349751 -42.829934 -107.335378 -44.912824 -100.625878 -103.628566 126.355385 160.484638 67.795508 156.393997 238.045261 86.441344 203.751073 147.922527 -73.965792 -62.642814 -34.042418 15.988114 -13.856827 -112.084716 -4.211350 -21.681442 85.350857 1.492787 44.382207 22.947976 -17.467809 -3.103980 2.339534 -8.930354 -4.696954 -56.073848 -10.159935 24.838545 0.130188 -39.597161 -17.529264 66.027862 14.568928 -21.105390 -25.069362
-54.708499 96.871241 -123.475941 -1.419794 -17.316901 -1.727549 -8.417520 26.400546 165.539238 -1.700289 1.657420 -182.987407 -20.292705 35.096630 -3.697000 43.038951 91.551350 -56.410594 157.685736 -86.743751 108.568609 371.443145 -35.841086 -41.168801 -106.606474 -44.544906 -100.854642 -107.861617 138.849235 172.081726 66.043216 161.756706 251.320253 90.219327 197.990682 156.475973 -82.024643 -64.985186 -37.178451 15.716009 -14.463383 -110.947264 -3.443453 -21.534847 84.476510 1.393407 44.804928 23.034676 -18.053699 -2.720224 3.930948 -10.249080 -7.220976 -59.038304 -12.630029 25.505338 3.058026 -39.019580 -18.732755 66.606755 14.252640 -21.654971 -24.495084
-54.604963 96.805895 -123.491209 -1.411299 -17.046223 -3.058760 -8.230036 27.143957 165.490620 -1.680103 -0.908380 -184.080032 -20.343372 29.968756 -2.656484 45.116504 93.634722 -57.748416 167.069186 -82.833864 117.584575 372.987178 -37.439142 -39.611358 -106.599773 -44.493543 -100.563655 -111.414148 152.757140 181.042456 66.370492 165.858003 265.467241 92.303634 195.024946 161.752717 -89.407190 -66.880331 -42.628331 16.012403 -14.221634 -110.169285 -3.030756 -21.438545 84.081316 1.367889 44.835329 23.280993 -18.624871 -2.753815 5.164534 -10.331453 -8.436819 -62.014586 -15.176911 25.382870 5.685967 -38.493928 -19.057251 67.522232 13.862181 -21.835461 -24.152514
-54.480414 96.690958 -123.419045 -1.505449 -17.371130 -4.199815 -7.822696 27.580003 165.397826 -1.526546 -4.785557 -184.797339 -20.246772 25.435631 -1.842396 47.444232 94.320910 -58.346201 175.227643 -79.426187 125.774273 373.998291 -39.138729 -38.138441 -106.516841 -44.418455 -100.167040 -112.465417 167.041347 188.492444 67.862601 168.559329 279.524235 93.621451 193.331482 166.575924 -96.180402 -67.845997 -49.157817 16.267612 -13.722331 -109.700003 -2.985712 -21.368710 84.080872 1.074227 45.045139 23.286992 -19.197580 -2.669222 5.946623 -10.353804 -8.899568 -64.921324 -17.321035 25.154011 8.187574 -37.745128 -19.266534 68.472059 13.294274 -22.216553 -23.905893
-54.335708 96.585940 -123.345726 -1.847351 -17.727741 -4.766011 -7.925348 27.695869 165.230472 -1.594127 -9.605911 -185.020699 -20.199974 21.308076 -1.190173 50.490363 93.625344 -58.915538 182.519252 -76.918032 133.913741 374.735952 -40.916750 -37.383999 -106.537912 -44.719038 -100.049383 -110.446420 180.921643 195.307716 69.245995 169.894426 292.564541 94.445779 192.421892 171.612150 -103.188941 -68.517862 -55.652436 16.791050 -13.243649 -109.415280 -2.861313 -21.518470 84.387725 0.717466 44.996890 23.239813 -19.802327 -2.771278 6.327475 -10.266390 -8.876411 -67.874465 -19.062421 24.759111 10.506664 -36.902884 -19.464576 69.392366 12.647487 -22.821378 -23.647892
-54.188999 96.495207 -123.256949 -2.023589 -17.896354 -4.483893 -7.563267 27.894117 165.409560 -1.883723 -14.371013 -184.766698 -20.162787 17.679847 -0.688495 54.179991 91.400990 -59.360320 189.590875 -75.555409 141.813715 375.242561 -42.653797 -37.392526 -106.314148 -45.186455 -100.330568 -106.257929 194.592745 201.492466 69.245612 170.035141 303.024129 95.042998 191.985676 176.853583 -109.802845 -68.695106 -62.606873 17.358798 -13.023238 -109.217245 -2.360549 -22.008481 84.927446 0.205777 44.797992 23.037388 -20.461515 -2.944016 6.319913 -10.371304 -8.882634 -70.921720 -20.603955 24.253109 12.576463 -36.066462 -19.455570 70.305630 12.049517 -23.542518 -23.382051
-54.047984 96.418885 -123.132980 -2.721550 -17.782818 -4.517298 -8.793629 28.429240 165.066111 -1.758296 -17.084820 -185.532991 -20.068272 15.056418 -0.333583 57.943623 90.554894 -59.131632 195.234947 -74.256294 151.148944 375.212043 -43.198112 -37.931630 -106.325500 -45.729592 -100.856438 -104.394244 205.772945 206.778895 72.464721 169.608364 313.416481 95.692590 190.156059 181.393760 -116.318422 -68.934777 -70.184729 17.879550 -13.454951 -109.548243 -2.750979 -21.774780 85.980504 -0.209500 44.683251 23.104324 -21.184976 -3.220596 6.205227 -9.617136 -8.914543 -74.080280 -21.806581 22.798352 14.598291 -35.324034 -18.938287 71.609192 11.540790 -24.103869 -22.934799
-53.880085 96.529749 -122.998398 -3.520256 -18.155611 -4.576108 -7.765014 28.471044 166.238048 -1.379987 -20.301569 -184.347202 -20.147832 12.743533 -0.064293 61.627253 88.439591 -59.367226 201.716742 -73.065245 157.893920 375.276930 -44.145299 -37.628984 -106.591734 -46.444511 -101.293652 -101.077996 216.557295 211.670035 75.826752 167.720295 322.595681 96.431391 188.277142 185.249005 -123.786332 -68.836047 -75.244806 18.612436 -13.570537 -110.097657 -3.358296 -21.912172 87.101981 -0.769610 44.564877 22.910007 -21.942119 -3.305844 5.764208 -9.648823 -8.350034 -76.779884 -22.445431 22.998939 16.321116 -34.308573 -18.676894 72.642040 11.351580 -24.115252 -22.657722
-53.709759 96.672619 -122.804945 -3.741808 -18.131451 -4.705597 -7.303408 29.196931 168.110941 -0.937118 -22.795534 -182.952231 -20.462513 10.705399 0.147241 64.697813 85.319690 -59.431921 208.489612 -72.328199 164.100417 375.530276 -45.347398 -37.531876 -107.138142 -47.417622 -101.920383 -95.164766 226.282446 216.384819 78.654710 164.279997 330.307293 97.298770 186.792573 189.537626 -130.151604 -68.622446 -81.003202 18.964772 -13.952386 -110.653941 -3.831458 -22.194124 88.464672 -1.261449 44.197372 22.839869 -22.761998 -3.434746 5.264105 -9.704210 -8.519086 -79.239415 -23.572494 22.189678 18.001722 -33.480590 -18.078274 73.908910 11.153917 -24.074639 -22.237218
-53.516483 96.803244 -122.586611 -4.185069 -18.132137 -5.002372 -7.310022 29.793312 170.075904 -0.708910 -24.066505 -181.225300 -20.185507 9.295452 0.167735 67.523114 81.827415 -59.178726 214.546870 -72.072293 170.153454 375.834574 -46.708617 -36.920816 -107.500942 -48.131059 -102.364455 -87.891462 234.449358 221.701233 80.192063 160.141271 336.844822 98.112041 185.668106 195.558807 -135.721432 -68.231541 -86.774685 19.325506 -14.238363 -111.370804 -4.352930 -22.339686 90.068994 -1.648948 43.695749 22.917675 -23.630872 -3.578358 4.744716 -9.480309 -8.518076 -81.574991 -24.491335 21.226406 19.545420 -32.611271 -17.509451 75.166840 10.975305 -24.035676 -21.896405
-53.323321 96.927927 -122.362002 -4.530747 -18.271280 -5.571504 -7.617958 30.252749 172.076125 -0.392934 -24.149233 -179.546071 -19.465503 8.424313 0.048877 69.861210 78.651090 -58.623097 220.078531 -72.062860 176.047265 376.033387 -47.860030 -36.463887 -107.989437 -48.627812 -102.582843 -79.609823 241.330637 227.358529 81.193191 155.413701 342.324928 98.736019 184.506823 202.676165 -140.939519 -67.993283 -92.259347 19.497345 -14.346172 -112.502436 -5.180421 -22.389153 91.743825 -1.937330 42.883619 23.043291 -24.535083 -3.795171 4.145087 -9.163180 -8.429282 -83.597868 -25.474606 20.010475 20.935228 -31.724316 -17.051345 76.353858 10.769868 -24.094746 -21.635683
